<svg width="1526" height="1070" viewBox="0 0 1526 1070" fill="none" xmlns="http://www.w3.org/2000/svg">
<path d="M154.437 478.423C151.476 475.836 148.046 473.994 144.333 472.61C132.546 468.217 117.882 468.436 106.094 464.043C103.138 462.941 100.364 461.55 97.8601 459.724C97.5788 459.519 97.2697 459.356 96.9443 459.235C95.2973 458.621 93.2432 459.07 92.39 460.437L77.7492 483.903C77.1663 484.837 77.3059 485.981 78.1927 486.754C81.1538 489.342 84.5833 491.184 88.2966 492.568C100.084 496.961 114.749 496.742 126.537 501.135C129.493 502.237 132.267 503.627 134.771 505.454C135.052 505.659 135.361 505.822 135.687 505.943C137.334 506.557 139.388 506.108 140.241 504.74L154.881 481.275C155.464 480.34 155.324 479.197 154.437 478.423ZM95.9957 463.733C97.6887 464.823 99.5817 465.759 101.586 466.63C99.6671 468.594 96.172 469.311 93.2052 468.205L95.9957 463.733ZM82.8436 484.813L85.0486 481.279C88.3379 482.504 89.741 485.513 88.3124 488.092C86.2397 487.155 84.4319 486.071 82.8436 484.813ZM111.885 489.69C107.656 488.114 106.212 483.657 108.659 479.736C111.105 475.814 116.517 473.913 120.745 475.488C124.973 477.064 126.418 481.521 123.971 485.442C121.524 489.365 116.112 491.265 111.885 489.69ZM136.634 501.445C135.16 500.496 133.533 499.665 131.825 498.884C133.59 497.164 136.574 496.471 139.298 497.176L136.634 501.445ZM147.53 483.982C144.754 482.591 143.65 479.828 145.029 477.439C146.799 478.296 148.387 479.258 149.786 480.365L147.53 483.982Z" fill="#55229E" fill-opacity="0.11"/>
<path d="M1522.49 596.3C1519.53 593.713 1516.1 591.871 1512.39 590.487C1500.6 586.093 1485.94 586.312 1474.15 581.92C1471.19 580.818 1468.42 579.427 1465.92 577.6C1465.64 577.395 1465.33 577.233 1465 577.111C1463.35 576.498 1461.3 576.946 1460.45 578.314L1445.81 601.78C1445.22 602.714 1445.36 603.857 1446.25 604.631C1449.21 607.218 1452.64 609.061 1456.35 610.445C1468.14 614.837 1482.81 614.619 1494.59 619.012C1497.55 620.113 1500.32 621.504 1502.83 623.331C1503.11 623.536 1503.42 623.698 1503.74 623.82C1505.39 624.433 1507.44 623.985 1508.3 622.617L1522.94 599.152C1523.52 598.217 1523.38 597.074 1522.49 596.3ZM1464.05 581.609C1465.75 582.7 1467.64 583.636 1469.64 584.507C1467.72 586.471 1464.23 587.188 1461.26 586.082L1464.05 581.609ZM1450.9 602.689L1453.11 599.155C1456.39 600.381 1457.8 603.39 1456.37 605.969C1454.3 605.032 1452.49 603.948 1450.9 602.689ZM1479.94 607.566C1475.71 605.99 1474.27 601.533 1476.72 597.612C1479.16 593.691 1484.57 591.789 1488.8 593.365C1493.03 594.941 1494.47 599.397 1492.03 603.319C1489.58 607.241 1484.17 609.142 1479.94 607.566ZM1504.69 619.322C1503.22 618.372 1501.59 617.542 1499.88 616.76C1501.65 615.041 1504.63 614.348 1507.35 615.053L1504.69 619.322ZM1515.59 601.858C1512.81 600.467 1511.71 597.705 1513.09 595.315C1514.86 596.173 1516.44 597.135 1517.84 598.242L1515.59 601.858Z" fill="#55229E" fill-opacity="0.11"/>
<path d="M1435.83 433.477C1432.87 430.89 1429.44 429.048 1425.72 427.664C1413.94 423.271 1399.27 423.49 1387.49 419.097C1384.53 417.995 1381.76 416.604 1379.25 414.778C1378.97 414.573 1378.66 414.41 1378.34 414.289C1376.69 413.675 1374.63 414.124 1373.78 415.491L1359.14 438.957C1358.56 439.891 1358.7 441.035 1359.58 441.808C1362.55 444.396 1365.97 446.238 1369.69 447.622C1381.48 452.015 1396.14 451.796 1407.93 456.189C1410.89 457.291 1413.66 458.681 1416.16 460.508C1416.44 460.713 1416.75 460.876 1417.08 460.997C1418.73 461.611 1420.78 461.162 1421.63 459.794L1436.27 436.329C1436.86 435.394 1436.72 434.252 1435.83 433.477ZM1377.39 418.787C1379.08 419.877 1380.97 420.813 1382.98 421.684C1381.06 423.648 1377.56 424.365 1374.6 423.259L1377.39 418.787ZM1364.24 439.867L1366.44 436.333C1369.73 437.558 1371.13 440.567 1369.7 443.146C1367.63 442.209 1365.82 441.125 1364.24 439.867ZM1393.28 444.744C1389.05 443.168 1387.6 438.711 1390.05 434.79C1392.5 430.868 1397.91 428.967 1402.14 430.543C1406.36 432.118 1407.81 436.575 1405.36 440.496C1402.92 444.419 1397.5 446.319 1393.28 444.744ZM1418.03 456.499C1416.55 455.55 1414.92 454.719 1413.22 453.938C1414.98 452.218 1417.97 451.525 1420.69 452.23L1418.03 456.499ZM1428.92 439.036C1426.15 437.645 1425.04 434.882 1426.42 432.493C1428.19 433.35 1429.78 434.312 1431.18 435.419L1428.92 439.036Z" fill="#55229E" fill-opacity="0.11"/>
<path d="M1365.83 253.477C1362.87 250.89 1359.44 249.048 1355.72 247.664C1343.94 243.271 1329.27 243.49 1317.49 239.097C1314.53 237.995 1311.76 236.604 1309.25 234.778C1308.97 234.573 1308.66 234.41 1308.34 234.289C1306.69 233.675 1304.63 234.124 1303.78 235.491L1289.14 258.957C1288.56 259.891 1288.7 261.035 1289.58 261.808C1292.55 264.396 1295.97 266.238 1299.69 267.622C1311.48 272.015 1326.14 271.796 1337.93 276.189C1340.89 277.291 1343.66 278.681 1346.16 280.508C1346.44 280.713 1346.75 280.876 1347.08 280.997C1348.73 281.611 1350.78 281.162 1351.63 279.794L1366.27 256.329C1366.86 255.394 1366.72 254.252 1365.83 253.477ZM1307.39 238.787C1309.08 239.877 1310.97 240.813 1312.98 241.684C1311.06 243.648 1307.56 244.365 1304.6 243.259L1307.39 238.787ZM1294.24 259.867L1296.44 256.333C1299.73 257.558 1301.13 260.567 1299.7 263.146C1297.63 262.209 1295.82 261.125 1294.24 259.867ZM1323.28 264.744C1319.05 263.168 1317.6 258.711 1320.05 254.79C1322.5 250.868 1327.91 248.967 1332.14 250.543C1336.36 252.118 1337.81 256.575 1335.36 260.496C1332.92 264.419 1327.5 266.319 1323.28 264.744ZM1348.03 276.499C1346.55 275.55 1344.92 274.719 1343.22 273.938C1344.98 272.218 1347.97 271.525 1350.69 272.23L1348.03 276.499ZM1358.92 259.036C1356.15 257.645 1355.04 254.882 1356.42 252.493C1358.19 253.35 1359.78 254.312 1361.18 255.419L1358.92 259.036Z" fill="#55229E" fill-opacity="0.11"/>
<path d="M1515.83 183.477C1512.87 180.89 1509.44 179.048 1505.72 177.664C1493.94 173.271 1479.27 173.49 1467.49 169.097C1464.53 167.995 1461.76 166.604 1459.25 164.778C1458.97 164.573 1458.66 164.41 1458.34 164.289C1456.69 163.675 1454.63 164.124 1453.78 165.491L1439.14 188.957C1438.56 189.891 1438.7 191.035 1439.58 191.808C1442.55 194.396 1445.97 196.238 1449.69 197.622C1461.48 202.015 1476.14 201.796 1487.93 206.189C1490.89 207.291 1493.66 208.681 1496.16 210.508C1496.44 210.713 1496.75 210.876 1497.08 210.997C1498.73 211.611 1500.78 211.162 1501.63 209.794L1516.27 186.329C1516.86 185.394 1516.72 184.252 1515.83 183.477ZM1457.39 168.787C1459.08 169.877 1460.97 170.813 1462.98 171.684C1461.06 173.648 1457.56 174.365 1454.6 173.259L1457.39 168.787ZM1444.24 189.867L1446.44 186.333C1449.73 187.558 1451.13 190.567 1449.7 193.146C1447.63 192.209 1445.82 191.125 1444.24 189.867ZM1473.28 194.744C1469.05 193.168 1467.6 188.711 1470.05 184.79C1472.5 180.868 1477.91 178.967 1482.14 180.543C1486.36 182.118 1487.81 186.575 1485.36 190.496C1482.92 194.419 1477.5 196.319 1473.28 194.744ZM1498.03 206.499C1496.55 205.55 1494.92 204.719 1493.22 203.938C1494.98 202.218 1497.97 201.525 1500.69 202.23L1498.03 206.499ZM1508.92 189.036C1506.15 187.645 1505.04 184.882 1506.42 182.493C1508.19 183.35 1509.78 184.312 1511.18 185.419L1508.92 189.036Z" fill="#55229E" fill-opacity="0.11"/>
<path d="M518.085 23.815C515.123 21.2281 511.694 19.3858 507.981 18.002C496.193 13.6084 481.529 13.8275 469.741 9.43464C466.785 8.33295 464.012 6.94202 461.508 5.11548C461.226 4.91036 460.917 4.74778 460.592 4.62652C458.945 4.01272 456.891 4.46152 456.037 5.82912L441.397 29.295C440.814 30.2292 440.953 31.3724 441.84 32.1459C444.801 34.7335 448.231 36.5759 451.944 37.9597C463.732 42.3526 478.397 42.1338 490.185 46.5267C493.141 47.6283 495.914 49.0193 498.418 50.8458C498.7 51.0509 499.009 51.2135 499.334 51.3348C500.981 51.9486 503.035 51.4998 503.889 50.1322L518.529 26.667C519.111 25.7317 518.971 24.5893 518.085 23.815ZM459.643 9.12462C461.336 10.215 463.229 11.1511 465.234 12.022C463.315 13.9861 459.819 14.7029 456.853 13.5972L459.643 9.12462ZM446.491 30.2044L448.696 26.6704C451.985 27.8962 453.388 30.9051 451.96 33.4841C449.887 32.5466 448.079 31.4627 446.491 30.2044ZM475.532 35.0814C471.303 33.5054 469.86 29.0485 472.306 25.1276C474.753 21.206 480.164 19.3046 484.392 20.8803C488.621 22.456 490.065 26.9125 487.619 30.834C485.171 34.7564 479.759 36.6567 475.532 35.0814ZM500.281 46.8371C498.807 45.8875 497.18 45.0568 495.472 44.2755C497.238 42.5558 500.221 41.8628 502.945 42.5678L500.281 46.8371ZM511.177 29.3734C508.401 27.9825 507.298 25.22 508.677 22.8304C510.446 23.6878 512.034 24.6497 513.433 25.7572L511.177 29.3734Z" fill="#55229E" fill-opacity="0.11"/>
<path d="M174.085 28.815C171.123 26.2281 167.694 24.3858 163.98 23.002C152.193 18.6084 137.529 18.8275 125.741 14.4346C122.785 13.3329 120.011 11.942 117.507 10.1155C117.226 9.91036 116.917 9.74778 116.592 9.62652C114.945 9.01272 112.89 9.46152 112.037 10.8291L97.3964 34.295C96.8136 35.2292 96.9531 36.3724 97.8399 37.1459C100.801 39.7335 104.231 41.5759 107.944 42.9597C119.732 47.3526 134.397 47.1338 146.184 51.5267C149.141 52.6283 151.914 54.0193 154.418 55.8458C154.7 56.0509 155.009 56.2135 155.334 56.3348C156.981 56.9486 159.035 56.4998 159.888 55.1322L174.529 31.667C175.111 30.7317 174.971 29.5893 174.085 28.815ZM115.643 14.1246C117.336 15.215 119.229 16.1511 121.233 17.022C119.314 18.9861 115.819 19.7029 112.852 18.5972L115.643 14.1246ZM102.491 35.2044L104.696 31.6704C107.985 32.8962 109.388 35.9051 107.96 38.4841C105.887 37.5466 104.079 36.4627 102.491 35.2044ZM131.532 40.0814C127.303 38.5054 125.86 34.0485 128.306 30.1276C130.753 26.206 136.164 24.3046 140.392 25.8803C144.62 27.456 146.065 31.9125 143.618 35.834C141.171 39.7564 135.759 41.6567 131.532 40.0814ZM156.281 51.8371C154.807 50.8875 153.18 50.0568 151.472 49.2755C153.237 47.5558 156.221 46.8628 158.945 47.5678L156.281 51.8371ZM167.177 34.3734C164.401 32.9825 163.297 30.22 164.676 27.8304C166.446 28.6878 168.034 29.6497 169.433 30.7572L167.177 34.3734Z" fill="#55229E" fill-opacity="0.11"/>
<path d="M848.085 23.815C845.123 21.2281 841.694 19.3858 837.98 18.002C826.193 13.6084 811.529 13.8275 799.741 9.43464C796.785 8.33295 794.011 6.94202 791.507 5.11548C791.226 4.91036 790.917 4.74778 790.592 4.62652C788.945 4.01272 786.89 4.46152 786.037 5.82912L771.396 29.295C770.814 30.2292 770.953 31.3724 771.84 32.1459C774.801 34.7335 778.231 36.5759 781.944 37.9597C793.732 42.3526 808.397 42.1338 820.184 46.5267C823.141 47.6283 825.914 49.0193 828.418 50.8458C828.7 51.0509 829.009 51.2135 829.334 51.3348C830.981 51.9486 833.035 51.4998 833.888 50.1322L848.529 26.667C849.111 25.7317 848.971 24.5893 848.085 23.815ZM789.643 9.12462C791.336 10.215 793.229 11.1511 795.233 12.022C793.314 13.9861 789.819 14.7029 786.852 13.5972L789.643 9.12462ZM776.491 30.2044L778.696 26.6704C781.985 27.8962 783.388 30.9051 781.96 33.4841C779.887 32.5466 778.079 31.4627 776.491 30.2044ZM805.532 35.0814C801.303 33.5054 799.86 29.0485 802.306 25.1276C804.753 21.206 810.164 19.3046 814.392 20.8803C818.62 22.456 820.065 26.9125 817.618 30.834C815.171 34.7564 809.759 36.6567 805.532 35.0814ZM830.281 46.8371C828.807 45.8875 827.18 45.0568 825.472 44.2755C827.237 42.5558 830.221 41.8628 832.945 42.5678L830.281 46.8371ZM841.177 29.3734C838.401 27.9825 837.297 25.22 838.676 22.8304C840.446 23.6878 842.034 24.6497 843.433 25.7572L841.177 29.3734Z" fill="#55229E" fill-opacity="0.11"/>
<path d="M1178.08 23.815C1175.12 21.2281 1171.69 19.3858 1167.98 18.002C1156.19 13.6084 1141.53 13.8275 1129.74 9.43464C1126.78 8.33295 1124.01 6.94202 1121.51 5.11548C1121.23 4.91036 1120.92 4.74778 1120.59 4.62652C1118.94 4.01272 1116.89 4.46152 1116.04 5.82912L1101.4 29.295C1100.81 30.2292 1100.95 31.3724 1101.84 32.1459C1104.8 34.7335 1108.23 36.5759 1111.94 37.9597C1123.73 42.3526 1138.4 42.1338 1150.18 46.5267C1153.14 47.6283 1155.91 49.0193 1158.42 50.8458C1158.7 51.0509 1159.01 51.2135 1159.33 51.3348C1160.98 51.9486 1163.03 51.4998 1163.89 50.1322L1178.53 26.667C1179.11 25.7317 1178.97 24.5893 1178.08 23.815ZM1119.64 9.12462C1121.34 10.215 1123.23 11.1511 1125.23 12.022C1123.31 13.9861 1119.82 14.7029 1116.85 13.5972L1119.64 9.12462ZM1106.49 30.2044L1108.7 26.6704C1111.98 27.8962 1113.39 30.9051 1111.96 33.4841C1109.89 32.5466 1108.08 31.4627 1106.49 30.2044ZM1135.53 35.0814C1131.3 33.5054 1129.86 29.0485 1132.31 25.1276C1134.75 21.206 1140.16 19.3046 1144.39 20.8803C1148.62 22.456 1150.06 26.9125 1147.62 30.834C1145.17 34.7564 1139.76 36.6567 1135.53 35.0814ZM1160.28 46.8371C1158.81 45.8875 1157.18 45.0568 1155.47 44.2755C1157.24 42.5558 1160.22 41.8628 1162.94 42.5678L1160.28 46.8371ZM1171.18 29.3734C1168.4 27.9825 1167.3 25.22 1168.68 22.8304C1170.45 23.6878 1172.03 24.6497 1173.43 25.7572L1171.18 29.3734Z" fill="#55229E" fill-opacity="0.11"/>
<path d="M1508.08 23.815C1505.12 21.2281 1501.69 19.3858 1497.98 18.002C1486.19 13.6084 1471.53 13.8275 1459.74 9.43464C1456.78 8.33295 1454.01 6.94202 1451.51 5.11548C1451.23 4.91036 1450.92 4.74778 1450.59 4.62652C1448.94 4.01272 1446.89 4.46152 1446.04 5.82912L1431.4 29.295C1430.81 30.2292 1430.95 31.3724 1431.84 32.1459C1434.8 34.7335 1438.23 36.5759 1441.94 37.9597C1453.73 42.3526 1468.4 42.1338 1480.18 46.5267C1483.14 47.6283 1485.91 49.0193 1488.42 50.8458C1488.7 51.0509 1489.01 51.2135 1489.33 51.3348C1490.98 51.9486 1493.03 51.4998 1493.89 50.1322L1508.53 26.667C1509.11 25.7317 1508.97 24.5893 1508.08 23.815ZM1449.64 9.12462C1451.34 10.215 1453.23 11.1511 1455.23 12.022C1453.31 13.9861 1449.82 14.7029 1446.85 13.5972L1449.64 9.12462ZM1436.49 30.2044L1438.7 26.6704C1441.98 27.8962 1443.39 30.9051 1441.96 33.4841C1439.89 32.5466 1438.08 31.4627 1436.49 30.2044ZM1465.53 35.0814C1461.3 33.5054 1459.86 29.0485 1462.31 25.1276C1464.75 21.206 1470.16 19.3046 1474.39 20.8803C1478.62 22.456 1480.06 26.9125 1477.62 30.834C1475.17 34.7564 1469.76 36.6567 1465.53 35.0814ZM1490.28 46.8371C1488.81 45.8875 1487.18 45.0568 1485.47 44.2755C1487.24 42.5558 1490.22 41.8628 1492.94 42.5678L1490.28 46.8371ZM1501.18 29.3734C1498.4 27.9825 1497.3 25.22 1498.68 22.8304C1500.45 23.6878 1502.03 24.6497 1503.43 25.7572L1501.18 29.3734Z" fill="#55229E" fill-opacity="0.11"/>
<path d="M346.636 230.87C343.675 228.283 340.245 226.441 336.532 225.057C324.744 220.664 310.08 220.883 298.293 216.49C295.336 215.388 292.563 213.997 290.059 212.171C289.778 211.966 289.468 211.803 289.143 211.682C287.496 211.068 285.442 211.517 284.589 212.884L269.948 236.35C269.365 237.284 269.505 238.428 270.391 239.201C273.353 241.789 276.782 243.631 280.495 245.015C292.283 249.408 306.948 249.189 318.736 253.582C321.692 254.684 324.466 256.075 326.97 257.901C327.251 258.106 327.56 258.269 327.885 258.39C329.533 259.004 331.587 258.555 332.44 257.187L347.08 233.722C347.663 232.787 347.523 231.645 346.636 230.87ZM288.194 216.18C289.887 217.27 291.78 218.206 293.785 219.077C291.866 221.041 288.371 221.758 285.404 220.652L288.194 216.18ZM275.042 237.26L277.247 233.726C280.537 234.951 281.94 237.96 280.511 240.539C278.438 239.602 276.631 238.518 275.042 237.26ZM304.083 242.137C299.854 240.561 298.411 236.104 300.857 232.183C303.304 228.261 308.716 226.36 312.944 227.936C317.172 229.511 318.617 233.968 316.17 237.889C313.723 241.812 308.311 243.712 304.083 242.137ZM328.833 253.892C327.359 252.943 325.731 252.112 324.024 251.331C325.789 249.611 328.773 248.918 331.496 249.623L328.833 253.892ZM339.729 236.429C336.953 235.038 335.849 232.275 337.228 229.886C338.998 230.743 340.586 231.705 341.985 232.812L339.729 236.429Z" fill="#55229E" fill-opacity="0.11"/>
<path d="M359.88 414.271C356.919 411.684 353.489 409.842 349.776 408.458C337.989 404.065 323.325 404.284 311.537 399.891C308.58 398.789 305.807 397.398 303.303 395.572C303.022 395.367 302.713 395.204 302.387 395.083C300.74 394.469 298.686 394.918 297.833 396.285L283.192 419.751C282.609 420.685 282.749 421.829 283.636 422.602C286.597 425.19 290.026 427.032 293.739 428.416C305.527 432.809 320.192 432.59 331.98 436.983C334.936 438.085 337.71 439.476 340.214 441.302C340.495 441.507 340.804 441.67 341.13 441.791C342.777 442.405 344.831 441.956 345.684 440.588L360.324 417.123C360.907 416.188 360.767 415.046 359.88 414.271ZM301.439 399.581C303.132 400.671 305.025 401.607 307.029 402.478C305.11 404.442 301.615 405.159 298.648 404.054L301.439 399.581ZM288.287 420.661L290.491 417.127C293.781 418.353 295.184 421.361 293.755 423.94C291.683 423.003 289.875 421.919 288.287 420.661ZM317.328 425.538C313.098 423.962 311.655 419.505 314.101 415.584C316.548 411.662 321.96 409.761 326.188 411.337C330.416 412.912 331.861 417.369 329.414 421.29C326.967 425.213 321.555 427.113 317.328 425.538ZM342.077 437.293C340.603 436.344 338.975 435.513 337.268 434.732C339.033 433.012 342.017 432.319 344.74 433.024L342.077 437.293ZM352.973 419.83C350.197 418.439 349.093 415.676 350.472 413.287C352.242 414.144 353.83 415.106 355.229 416.214L352.973 419.83Z" fill="#55229E" fill-opacity="0.11"/>
<path d="M209.247 651.13C206.285 648.543 202.856 646.701 199.143 645.317C187.355 640.923 172.691 641.142 160.903 636.749C157.947 635.648 155.174 634.257 152.67 632.43C152.388 632.225 152.079 632.063 151.754 631.941C150.107 631.328 148.053 631.776 147.2 633.144L132.559 656.61C131.976 657.544 132.115 658.687 133.002 659.461C135.963 662.048 139.393 663.891 143.106 665.275C154.894 669.667 169.559 669.449 181.347 673.841C184.303 674.943 187.077 676.334 189.581 678.161C189.862 678.366 190.171 678.528 190.496 678.65C192.143 679.263 194.197 678.815 195.051 677.447L209.691 653.982C210.273 653.047 210.133 651.904 209.247 651.13ZM150.805 636.439C152.498 637.53 154.391 638.466 156.396 639.337C154.477 641.301 150.982 642.018 148.015 640.912L150.805 636.439ZM137.653 657.519L139.858 653.985C143.147 655.211 144.551 658.22 143.122 660.799C141.049 659.861 139.241 658.778 137.653 657.519ZM166.694 662.396C162.465 660.82 161.022 656.363 163.468 652.442C165.915 648.521 171.326 646.619 175.555 648.195C179.783 649.771 181.227 654.227 178.781 658.149C176.333 662.071 170.921 663.972 166.694 662.396ZM191.444 674.152C189.969 673.202 188.342 672.372 186.634 671.59C188.4 669.871 191.384 669.178 194.107 669.883L191.444 674.152ZM202.339 656.688C199.564 655.297 198.46 652.535 199.839 650.145C201.609 651.003 203.196 651.964 204.596 653.072L202.339 656.688Z" fill="#55229E" fill-opacity="0.11"/>
<path d="M339.247 806.13C336.285 803.543 332.856 801.701 329.143 800.317C317.355 795.923 302.691 796.142 290.903 791.749C287.947 790.648 285.174 789.257 282.67 787.43C282.388 787.225 282.079 787.063 281.754 786.941C280.107 786.328 278.053 786.776 277.2 788.144L262.559 811.61C261.976 812.544 262.115 813.687 263.002 814.461C265.963 817.048 269.393 818.891 273.106 820.275C284.894 824.667 299.559 824.449 311.347 828.841C314.303 829.943 317.077 831.334 319.581 833.161C319.862 833.366 320.171 833.528 320.496 833.65C322.143 834.263 324.197 833.815 325.051 832.447L339.691 808.982C340.273 808.047 340.133 806.904 339.247 806.13ZM280.805 791.439C282.498 792.53 284.391 793.466 286.396 794.337C284.477 796.301 280.982 797.018 278.015 795.912L280.805 791.439ZM267.653 812.519L269.858 808.985C273.147 810.211 274.551 813.22 273.122 815.799C271.049 814.861 269.241 813.778 267.653 812.519ZM296.694 817.396C292.465 815.82 291.022 811.363 293.468 807.442C295.915 803.521 301.326 801.619 305.555 803.195C309.783 804.771 311.227 809.227 308.781 813.149C306.333 817.071 300.921 818.972 296.694 817.396ZM321.444 829.152C319.969 828.202 318.342 827.372 316.634 826.59C318.4 824.871 321.384 824.178 324.107 824.883L321.444 829.152ZM332.339 811.688C329.564 810.297 328.46 807.535 329.839 805.145C331.609 806.003 333.196 806.964 334.596 808.072L332.339 811.688Z" fill="#55229E" fill-opacity="0.11"/>
<path d="M79.247 836.13C76.2855 833.543 72.8559 831.701 69.1426 830.317C57.3553 825.923 42.6912 826.142 30.9035 821.749C27.9472 820.648 25.1737 819.257 22.6697 817.43C22.3884 817.225 22.0793 817.063 21.7539 816.941C20.1069 816.328 18.0528 816.776 17.1995 818.144L2.55876 841.61C1.97592 842.544 2.11547 843.687 3.0023 844.461C5.96335 847.048 9.3929 848.891 13.1062 850.275C24.8939 854.667 39.559 854.449 51.3468 858.841C54.3031 859.943 57.0765 861.334 59.5805 863.161C59.8619 863.366 60.1709 863.528 60.4963 863.65C62.1434 864.263 64.1974 863.815 65.0507 862.447L79.691 838.982C80.2734 838.047 80.1333 836.904 79.247 836.13ZM20.8053 821.439C22.4982 822.53 24.3913 823.466 26.3957 824.337C24.4767 826.301 20.9815 827.018 18.0147 825.912L20.8053 821.439ZM7.65322 842.519L9.85815 838.985C13.1475 840.211 14.5505 843.22 13.1219 845.799C11.0493 844.861 9.24143 843.778 7.65322 842.519ZM36.6942 847.396C32.4651 845.82 31.0219 841.363 33.4681 837.442C35.9149 833.521 41.3264 831.619 45.5546 833.195C49.7827 834.771 51.2274 839.227 48.7807 843.149C46.3335 847.071 40.9215 848.972 36.6942 847.396ZM61.4435 859.152C59.9694 858.202 58.3421 857.372 56.6344 856.59C58.3997 854.871 61.3835 854.178 64.1072 854.883L61.4435 859.152ZM72.3394 841.688C69.5636 840.297 68.4597 837.535 69.8386 835.145C71.6085 836.003 73.1965 836.964 74.5956 838.072L72.3394 841.688Z" fill="#55229E" fill-opacity="0.11"/>
<path d="M219.247 986.13C216.285 983.543 212.856 981.701 209.143 980.317C197.355 975.923 182.691 976.142 170.903 971.749C167.947 970.648 165.174 969.257 162.67 967.43C162.388 967.225 162.079 967.063 161.754 966.941C160.107 966.328 158.053 966.776 157.2 968.144L142.559 991.61C141.976 992.544 142.115 993.687 143.002 994.461C145.963 997.048 149.393 998.891 153.106 1000.27C164.894 1004.67 179.559 1004.45 191.347 1008.84C194.303 1009.94 197.077 1011.33 199.581 1013.16C199.862 1013.37 200.171 1013.53 200.496 1013.65C202.143 1014.26 204.197 1013.81 205.051 1012.45L219.691 988.982C220.273 988.047 220.133 986.904 219.247 986.13ZM160.805 971.439C162.498 972.53 164.391 973.466 166.396 974.337C164.477 976.301 160.982 977.018 158.015 975.912L160.805 971.439ZM147.653 992.519L149.858 988.985C153.147 990.211 154.551 993.22 153.122 995.799C151.049 994.861 149.241 993.778 147.653 992.519ZM176.694 997.396C172.465 995.82 171.022 991.363 173.468 987.442C175.915 983.521 181.326 981.619 185.555 983.195C189.783 984.771 191.227 989.227 188.781 993.149C186.333 997.071 180.921 998.972 176.694 997.396ZM201.444 1009.15C199.969 1008.2 198.342 1007.37 196.634 1006.59C198.4 1004.87 201.384 1004.18 204.107 1004.88L201.444 1009.15ZM212.339 991.688C209.564 990.297 208.46 987.535 209.839 985.145C211.609 986.003 213.196 986.964 214.596 988.072L212.339 991.688Z" fill="#55229E" fill-opacity="0.11"/>
<path d="M550.085 1018.81C547.123 1016.23 543.694 1014.39 539.98 1013C528.193 1008.61 513.529 1008.83 501.741 1004.43C498.785 1003.33 496.011 1001.94 493.507 1000.12C493.226 999.91 492.917 999.748 492.592 999.627C490.945 999.013 488.89 999.462 488.037 1000.83L473.396 1024.3C472.814 1025.23 472.953 1026.37 473.84 1027.15C476.801 1029.73 480.231 1031.58 483.944 1032.96C495.732 1037.35 510.397 1037.13 522.184 1041.53C525.141 1042.63 527.914 1044.02 530.418 1045.85C530.7 1046.05 531.009 1046.21 531.334 1046.33C532.981 1046.95 535.035 1046.5 535.888 1045.13L550.529 1021.67C551.111 1020.73 550.971 1019.59 550.085 1018.81ZM491.643 1004.12C493.336 1005.21 495.229 1006.15 497.233 1007.02C495.314 1008.99 491.819 1009.7 488.852 1008.6L491.643 1004.12ZM478.491 1025.2L480.696 1021.67C483.985 1022.9 485.388 1025.91 483.96 1028.48C481.887 1027.55 480.079 1026.46 478.491 1025.2ZM507.532 1030.08C503.303 1028.51 501.86 1024.05 504.306 1020.13C506.753 1016.21 512.164 1014.3 516.392 1015.88C520.62 1017.46 522.065 1021.91 519.618 1025.83C517.171 1029.76 511.759 1031.66 507.532 1030.08ZM532.281 1041.84C530.807 1040.89 529.18 1040.06 527.472 1039.28C529.237 1037.56 532.221 1036.86 534.945 1037.57L532.281 1041.84ZM543.177 1024.37C540.401 1022.98 539.297 1020.22 540.676 1017.83C542.446 1018.69 544.034 1019.65 545.433 1020.76L543.177 1024.37Z" fill="#55229E" fill-opacity="0.11"/>
<path d="M889.922 1023.5C886.961 1020.91 883.531 1019.07 879.818 1017.69C868.031 1013.29 853.367 1013.51 841.579 1009.12C838.622 1008.02 835.849 1006.63 833.345 1004.8C833.064 1004.6 832.755 1004.43 832.429 1004.31C830.782 1003.7 828.728 1004.15 827.875 1005.51L813.234 1028.98C812.651 1029.91 812.791 1031.06 813.678 1031.83C816.639 1034.42 820.068 1036.26 823.781 1037.64C835.569 1042.04 850.234 1041.82 862.022 1046.21C864.978 1047.31 867.752 1048.7 870.256 1050.53C870.537 1050.74 870.846 1050.9 871.172 1051.02C872.819 1051.63 874.873 1051.18 875.726 1049.82L890.366 1026.35C890.949 1025.42 890.809 1024.27 889.922 1023.5ZM831.481 1008.81C833.174 1009.9 835.067 1010.84 837.071 1011.71C835.152 1013.67 831.657 1014.39 828.69 1013.28L831.481 1008.81ZM818.329 1029.89L820.533 1026.36C823.823 1027.58 825.226 1030.59 823.797 1033.17C821.725 1032.23 819.917 1031.15 818.329 1029.89ZM847.37 1034.77C843.14 1033.19 841.697 1028.73 844.143 1024.81C846.59 1020.89 852.002 1018.99 856.23 1020.57C860.458 1022.14 861.903 1026.6 859.456 1030.52C857.009 1034.44 851.597 1036.34 847.37 1034.77ZM872.119 1046.52C870.645 1045.57 869.017 1044.74 867.31 1043.96C869.075 1042.24 872.059 1041.55 874.782 1042.25L872.119 1046.52ZM883.015 1029.06C880.239 1027.67 879.135 1024.91 880.514 1022.52C882.284 1023.37 883.872 1024.33 885.271 1025.44L883.015 1029.06Z" fill="#55229E" fill-opacity="0.11"/>
<path d="M1522.08 858.815C1519.12 856.228 1515.69 854.386 1511.98 853.002C1500.19 848.608 1485.53 848.828 1473.74 844.435C1470.79 843.333 1468.01 841.942 1465.51 840.115C1465.23 839.91 1464.92 839.748 1464.59 839.627C1462.94 839.013 1460.89 839.462 1460.04 840.829L1445.4 864.295C1444.81 865.229 1444.95 866.372 1445.84 867.146C1448.8 869.734 1452.23 871.576 1455.94 872.96C1467.73 877.353 1482.4 877.134 1494.18 881.527C1497.14 882.628 1499.91 884.019 1502.42 885.846C1502.7 886.051 1503.01 886.214 1503.33 886.335C1504.98 886.949 1507.04 886.5 1507.89 885.132L1522.53 861.667C1523.11 860.732 1522.97 859.589 1522.08 858.815ZM1463.64 844.125C1465.34 845.215 1467.23 846.151 1469.23 847.022C1467.31 848.986 1463.82 849.703 1460.85 848.597L1463.64 844.125ZM1450.49 865.204L1452.7 861.67C1455.99 862.896 1457.39 865.905 1455.96 868.484C1453.89 867.547 1452.08 866.463 1450.49 865.204ZM1479.53 870.081C1475.3 868.505 1473.86 864.048 1476.31 860.128C1478.75 856.206 1484.16 854.305 1488.39 855.88C1492.62 857.456 1494.07 861.912 1491.62 865.834C1489.17 869.756 1483.76 871.657 1479.53 870.081ZM1504.28 881.837C1502.81 880.887 1501.18 880.057 1499.47 879.275C1501.24 877.556 1504.22 876.863 1506.95 877.568L1504.28 881.837ZM1515.18 864.373C1512.4 862.982 1511.3 860.22 1512.68 857.83C1514.45 858.688 1516.03 859.65 1517.43 860.757L1515.18 864.373Z" fill="#55229E" fill-opacity="0.11"/>
<path d="M1203.54 1037.85C1200.58 1035.27 1197.15 1033.42 1193.44 1032.04C1181.65 1027.65 1166.99 1027.87 1155.2 1023.47C1152.25 1022.37 1149.47 1020.98 1146.97 1019.15C1146.69 1018.95 1146.38 1018.79 1146.05 1018.66C1144.4 1018.05 1142.35 1018.5 1141.5 1019.87L1126.86 1043.33C1126.27 1044.27 1126.41 1045.41 1127.3 1046.18C1130.26 1048.77 1133.69 1050.61 1137.4 1052C1149.19 1056.39 1163.86 1056.17 1175.64 1060.56C1178.6 1061.67 1181.37 1063.06 1183.88 1064.88C1184.16 1065.09 1184.47 1065.25 1184.79 1065.37C1186.44 1065.99 1188.5 1065.54 1189.35 1064.17L1203.99 1040.7C1204.57 1039.77 1204.43 1038.63 1203.54 1037.85ZM1145.1 1023.16C1146.8 1024.25 1148.69 1025.19 1150.69 1026.06C1148.77 1028.02 1145.28 1028.74 1142.31 1027.64L1145.1 1023.16ZM1131.95 1044.24L1134.16 1040.71C1137.45 1041.93 1138.85 1044.94 1137.42 1047.52C1135.35 1046.58 1133.54 1045.5 1131.95 1044.24ZM1160.99 1049.12C1156.76 1047.54 1155.32 1043.09 1157.77 1039.17C1160.21 1035.24 1165.62 1033.34 1169.85 1034.92C1174.08 1036.49 1175.53 1040.95 1173.08 1044.87C1170.63 1048.79 1165.22 1050.69 1160.99 1049.12ZM1185.74 1060.88C1184.27 1059.93 1182.64 1059.09 1180.93 1058.31C1182.7 1056.59 1185.68 1055.9 1188.41 1056.61L1185.74 1060.88ZM1196.64 1043.41C1193.86 1042.02 1192.76 1039.26 1194.14 1036.87C1195.91 1037.73 1197.49 1038.69 1198.89 1039.8L1196.64 1043.41Z" fill="#55229E" fill-opacity="0.11"/>
<path d="M1415.08 985.815C1412.12 983.228 1408.69 981.386 1404.98 980.002C1393.19 975.608 1378.53 975.828 1366.74 971.435C1363.79 970.333 1361.01 968.942 1358.51 967.115C1358.23 966.91 1357.92 966.748 1357.59 966.627C1355.94 966.013 1353.89 966.462 1353.04 967.829L1338.4 991.295C1337.81 992.229 1337.95 993.372 1338.84 994.146C1341.8 996.734 1345.23 998.576 1348.94 999.96C1360.73 1004.35 1375.4 1004.13 1387.18 1008.53C1390.14 1009.63 1392.91 1011.02 1395.42 1012.85C1395.7 1013.05 1396.01 1013.21 1396.33 1013.33C1397.98 1013.95 1400.04 1013.5 1400.89 1012.13L1415.53 988.667C1416.11 987.732 1415.97 986.589 1415.08 985.815ZM1356.64 971.125C1358.34 972.215 1360.23 973.151 1362.23 974.022C1360.31 975.986 1356.82 976.703 1353.85 975.597L1356.64 971.125ZM1343.49 992.204L1345.7 988.67C1348.99 989.896 1350.39 992.905 1348.96 995.484C1346.89 994.547 1345.08 993.463 1343.49 992.204ZM1372.53 997.081C1368.3 995.505 1366.86 991.048 1369.31 987.128C1371.75 983.206 1377.16 981.305 1381.39 982.88C1385.62 984.456 1387.07 988.912 1384.62 992.834C1382.17 996.756 1376.76 998.657 1372.53 997.081ZM1397.28 1008.84C1395.81 1007.89 1394.18 1007.06 1392.47 1006.28C1394.24 1004.56 1397.22 1003.86 1399.95 1004.57L1397.28 1008.84ZM1408.18 991.373C1405.4 989.982 1404.3 987.22 1405.68 984.83C1407.45 985.688 1409.03 986.65 1410.43 987.757L1408.18 991.373Z" fill="#55229E" fill-opacity="0.11"/>
<path d="M1359.75 717.978C1356.79 715.391 1353.36 713.549 1349.65 712.165C1337.86 707.772 1323.19 707.991 1311.41 703.598C1308.45 702.496 1305.68 701.105 1303.17 699.279C1302.89 699.074 1302.58 698.911 1302.26 698.79C1300.61 698.176 1298.56 698.625 1297.7 699.992L1283.06 723.458C1282.48 724.393 1282.62 725.536 1283.51 726.309C1286.47 728.897 1289.9 730.739 1293.61 732.123C1305.4 736.516 1320.06 736.297 1331.85 740.69C1334.81 741.792 1337.58 743.183 1340.08 745.009C1340.37 745.214 1340.67 745.377 1341 745.498C1342.65 746.112 1344.7 745.663 1345.55 744.296L1360.19 720.83C1360.78 719.895 1360.64 718.753 1359.75 717.978ZM1301.31 703.288C1303 704.378 1304.89 705.314 1306.9 706.185C1304.98 708.149 1301.48 708.866 1298.52 707.761L1301.31 703.288ZM1288.16 724.368L1290.36 720.834C1293.65 722.06 1295.05 725.068 1293.63 727.647C1291.55 726.71 1289.74 725.626 1288.16 724.368ZM1317.2 729.245C1312.97 727.669 1311.53 723.212 1313.97 719.291C1316.42 715.369 1321.83 713.468 1326.06 715.044C1330.29 716.619 1331.73 721.076 1329.28 724.997C1326.84 728.92 1321.42 730.82 1317.2 729.245ZM1341.95 741C1340.47 740.051 1338.85 739.22 1337.14 738.439C1338.9 736.719 1341.89 736.026 1344.61 736.731L1341.95 741ZM1352.84 723.537C1350.07 722.146 1348.96 719.383 1350.34 716.994C1352.11 717.851 1353.7 718.813 1355.1 719.921L1352.84 723.537Z" fill="#55229E" fill-opacity="0.11"/>
</svg>
